<svg width="290" height="85" viewBox="0 0 290 85" fill="none" xmlns="http://www.w3.org/2000/svg">
<g filter="url(#filter0_d_123_2)">
<path d="M285.118 76.7867H42.3935C21.1894 76.7867 4.00003 59.5974 4.00003 38.3934V38.3934C4.00003 17.1893 21.1893 -2.28882e-05 42.3934 -2.28882e-05H285.118C267.837 27.1299 266.785 43.8292 285.118 76.7867Z" fill="#473D5E"/>
<path d="M269.263 36.1799C269.134 47.5834 273.029 59.4461 280.912 74.2867H42.3935C22.5701 74.2867 6.50003 58.2167 6.50003 38.3934C6.50003 18.57 22.57 2.49998 42.3934 2.49998H280.629C273.393 14.5475 269.389 24.978 269.263 36.1799Z" stroke="#917129" stroke-width="5"/>
</g>
<defs>
<filter id="filter0_d_123_2" x="3.05176e-05" y="-3.05176e-05" width="289.118" height="84.7868" filterUnits="userSpaceOnUse" color-interpolation-filters="sRGB">
<feFlood flood-opacity="0" result="BackgroundImageFix"/>
<feColorMatrix in="SourceAlpha" type="matrix" values="0 0 0 0 0 0 0 0 0 0 0 0 0 0 0 0 0 0 127 0" result="hardAlpha"/>
<feOffset dy="4"/>
<feGaussianBlur stdDeviation="2"/>
<feComposite in2="hardAlpha" operator="out"/>
<feColorMatrix type="matrix" values="0 0 0 0 0 0 0 0 0 0 0 0 0 0 0 0 0 0 0.25 0"/>
<feBlend mode="normal" in2="BackgroundImageFix" result="effect1_dropShadow_123_2"/>
<feBlend mode="normal" in="SourceGraphic" in2="effect1_dropShadow_123_2" result="shape"/>
</filter>
</defs>
</svg>
