<?xml version="1.0"?>
<svg width="300" height="300" xmlns="http://www.w3.org/2000/svg" xmlns:svg="http://www.w3.org/2000/svg" version="1">
 <g class="layer">
  <title>Layer 1</title>
  <path d="m133,1.6c-33.5,4.3 -65.1,19.6 -88.4,43c-20.1,20.1 -33.7,44.7 -40.4,72.8c-2.4,10.1 -2.6,13 -2.7,32.1c0,16.6 0.4,22.8 1.8,29.5c4.4,20.5 13.6,41.7 25.4,58.3c7.7,10.8 23.6,26.6 34.8,34.6c9.9,7 28.9,16.6 40.5,20.4c30,9.9 64.9,9.4 95.6,-1.3c20.6,-7.3 39.8,-19.5 55.9,-35.5c20.9,-20.9 34.1,-45.1 40.7,-74.6c2,-9.1 2.3,-13 2.3,-30.9c-0.1,-17.2 -0.4,-22 -2.2,-30.2c-3.1,-13.9 -6.6,-23.7 -12.9,-36.3c-16.5,-33.2 -45.7,-59.7 -80.1,-72.7c-18.1,-6.8 -29.2,-8.9 -49.3,-9.3c-9.6,-0.2 -19.1,-0.1 -21,0.1zm12,51.9l0,33.5l-4.7,0c-10.1,0 -38.3,-6 -38.3,-8.2c0,-2.3 11.6,-23.1 17.4,-31.2c5.1,-7.1 23.9,-27.6 25.3,-27.6c0.2,0 0.3,15.1 0.3,33.5zm37.9,-2.5c5.9,8.8 15.1,25.8 15.1,27.9c0,2.1 -28.6,8.1 -38.7,8.1l-4.3,0l0,-33.8l0.1,-33.7l10.7,11c5.9,6.1 13.6,15.2 17.1,20.5zm-61.5,-21.3c-8.8,10.4 -17.5,23.5 -23.6,35.8c-2.8,5.5 -5.2,10.1 -5.3,10.3c-1.1,1.2 -32.5,-17.1 -32.5,-18.9c0,-2.6 19.3,-16.6 31.6,-22.9c9.6,-4.9 28.8,-11.4 35.2,-11.9c0.7,-0.1 -1.7,3.4 -5.4,7.6zm67.1,-3.5c11.7,3.5 24.1,9.5 34.5,16.5c7.7,5.2 17,13 17,14.1c0,1.9 -31.4,20.2 -32.5,19c-0.1,-0.2 -2.5,-4.8 -5.3,-10.3c-6.2,-12.4 -14.8,-25.5 -23.8,-35.9l-6.8,-7.8l3.5,0.7c1.9,0.3 7.9,2 13.4,3.7zm-126.8,43.7c4.8,3.3 12.9,8 17.9,10.5l9.1,4.5l-2.9,9.8c-3.4,11.5 -6.4,28.2 -7.4,41.1l-0.7,9.2l-28.8,0c-27.9,0 -28.9,-0.1 -28.9,-1.9c0,-4.2 2.2,-18 4.1,-25.5c2.6,-10.4 7.8,-23.2 13,-32c3.8,-6.4 14.6,-21.6 15.4,-21.6c0.2,0 4.3,2.7 9.2,5.9zm193.5,4.2c13.7,19.1 21.9,40.7 24.3,64.1l0.7,6.8l-57.8,0l-1.2,-12.7c-1.3,-13.1 -4.9,-31.1 -8.2,-40.9c-1.1,-3.2 -2,-5.9 -2,-6c0,-0.2 4.4,-2.6 9.8,-5.3c5.3,-2.7 13.3,-7.4 17.7,-10.4c4.4,-3.1 8.4,-5.4 8.9,-5.3c0.6,0.1 4,4.5 7.8,9.7zm-132.4,20.3c4.8,0.8 11.7,1.7 15.5,2.1l6.7,0.7l0,47.8l-57.5,0l0.6,-9.8c0.9,-12.3 3.2,-25.2 6.5,-36.7c1.4,-5 2.8,-9.3 3,-9.6c0.2,-0.3 4,0.4 8.4,1.7c4.4,1.3 12,3 16.8,3.8zm84.5,12.1c3.1,13 4.7,24.3 4.7,32.6l0,5.9l-57,0l0,-47.8l6.8,-0.7c10.8,-1.1 23.3,-3.3 31.8,-5.8l7.9,-2.3l1.6,3.6c0.9,1.9 2.8,8.5 4.2,14.5zm-129.3,52.4c0,12.8 4.6,37 10.2,53c1.6,4.7 3.2,9.3 3.5,10.2c0.4,1.3 -1.7,2.7 -9,6.2c-5.3,2.5 -12.7,6.6 -16.6,9.1c-4,2.5 -7.5,4.6 -8,4.6s-2.9,-2.4 -5.3,-5.3c-19,-22.3 -29.7,-46.9 -32.4,-74.5l-0.7,-7.2l58.3,0l0,3.9zm67,25l0,28.9l-6.7,0.7c-9.8,0.9 -24,3.3 -29.7,5c-2.7,0.8 -5.6,1.5 -6.3,1.5c-4.1,0 -13.4,-37.2 -14.5,-58.3l-0.4,-6.7l57.6,0l0,28.9zm66.7,-18.7c-0.3,5.7 -1.5,15 -2.7,20.8c-2.1,10.1 -8.1,30 -9.9,32.9c-0.7,1.2 -2.2,1 -9.2,-0.7c-8.9,-2.3 -17,-3.6 -28.1,-4.7l-6.8,-0.7l0,-57.8l57.3,0l-0.6,10.2zm68.3,-8c0,5.1 -3.1,21.9 -5.5,30.1c-3,10.3 -6.9,19.3 -13,29.7c-4.7,8 -16.9,23.8 -19,24.6c-0.7,0.3 -4.5,-1.6 -8.5,-4.1c-3.9,-2.6 -11.4,-6.7 -16.6,-9.2c-5.2,-2.4 -9.4,-4.6 -9.4,-4.9c0,-0.3 1.5,-4.9 3.4,-10.3c4.7,-13.6 8.4,-30.4 9.8,-45.4l1.2,-12.7l57.6,0l0,2.2zm-135,94.4l0,28.5l-2.8,-2c-4.1,-2.9 -14.3,-14 -20.7,-22.5c-6,-8 -15.5,-23.4 -15.5,-25.3c0,-0.6 1.7,-1.7 3.7,-2.4c5.8,-1.9 23.2,-4.7 29.6,-4.8l5.7,-0.1l0,28.6zm29,-27.1c11.7,1.9 20,4.2 20,5.6c0,1.5 -7.5,14.3 -12.8,21.8c-6.2,8.7 -16,19.9 -21.6,24.4l-4.6,3.8l0,-57.1l4.8,0c2.6,0 9,0.7 14.2,1.5zm-74.5,14.3c6.2,11.9 15.8,25.4 24.4,34.4c5.3,5.6 4.6,5.9 -6.9,2.8c-10.8,-3 -17.3,-5.5 -27.3,-10.7c-8.6,-4.4 -23.7,-14.7 -23.7,-16.1c0,-1.7 26.4,-16.2 29.5,-16.2c0.5,0 2.4,2.6 4,5.8zm112.3,-2.8c7.8,3.5 22.2,12.1 22.2,13.1c0,1.6 -15.4,11.9 -24.7,16.7c-10,5.1 -25.7,10.6 -33.5,11.8l-4.3,0.7l4.2,-4.4c6.7,-7.1 17.7,-22.4 23,-32c2.6,-4.9 5.1,-8.9 5.6,-8.9c0.4,0 3.8,1.4 7.5,3z" fill="#787878" id="svg_1"/>
 </g>
</svg>