<svg width="358" height="85" viewBox="0 0 358 85" fill="none" xmlns="http://www.w3.org/2000/svg">
<g filter="url(#filter0_d_105_2)">
<path d="M72.8824 0H315.607C336.811 0 354 17.1893 354 38.3934V38.3934C354 59.5975 336.811 76.7868 315.607 76.7868H72.8824C90.1628 49.6569 91.2154 32.9575 72.8824 0Z" fill="#473D5E"/>
<path d="M88.7372 40.6069C88.8656 29.2033 84.9707 17.3407 77.0883 2.5H315.607C335.43 2.5 351.5 18.57 351.5 38.3934C351.5 58.2168 335.43 74.2868 315.607 74.2868H77.3713C84.6072 62.2393 88.6111 51.8087 88.7372 40.6069Z" stroke="#917129" stroke-width="5"/>
</g>
<path d="M35.0471 1.23456C34.7528 1.9069 33.9704 3.71525 33.3101 5.24538C32.1831 7.84198 32.097 8.02746 31.9391 8.02746C31.7955 8.02166 29.6421 6.87406 23.3111 3.40806C22.4425 2.93279 21.7104 2.56764 21.6817 2.59082C21.6314 2.6314 22.3923 6.61324 22.9019 8.98379C23.0239 9.54021 23.1244 10.0445 23.1244 10.0966C23.1244 10.2705 22.9522 10.2183 22.4712 9.90535C21.5955 9.33735 20.1312 8.52011 19.0043 7.97529C17.7768 7.37251 15.8387 6.56107 15.767 6.61324C15.7454 6.63642 15.9751 6.93202 16.2838 7.27977C17.784 8.9722 19.1837 11.2094 20.3681 13.8176C20.5978 14.3219 20.8275 14.745 20.8777 14.7624C20.928 14.7798 21.6099 14.5305 22.3851 14.2176C27.5605 12.1194 32.8866 10.9139 38.8443 10.4792C40.1866 10.3806 44.5652 10.3806 45.9506 10.4792C48.4772 10.6588 50.8029 10.9544 52.9348 11.3659C53.5952 11.4992 54.1766 11.592 54.2268 11.5746C54.2914 11.5572 54.3919 11.1457 54.5211 10.369C55.0021 7.5348 55.6983 5.24538 56.5812 3.6399C57.0406 2.79368 57.0406 2.7647 56.5023 3.10667C54.9303 4.09778 52.942 5.68008 51.5494 7.04214L50.724 7.84778L50.6737 7.41308C50.645 7.18124 50.4871 5.43086 50.322 3.53557C50.1569 1.64028 49.999 0.0637763 49.9703 0.0405923C49.9416 0.0116124 49.7693 0.11594 49.597 0.272432C49.4176 0.423127 47.903 1.73882 46.2305 3.18781C44.5652 4.63681 42.8425 6.13217 42.4118 6.50311C41.6509 7.16385 41.4571 7.26818 41.2992 7.11169C41.2203 7.03634 39.4401 4.7933 37.1431 1.86633C36.332 0.840438 35.6501 2.04528e-05 35.6214 2.04528e-05C35.5999 2.04528e-05 35.3414 0.556435 35.0471 1.23456Z" fill="#917129"/>
<path d="M39.7416 12.5251C34.2001 12.8207 28.9745 13.9046 23.9499 15.794C23.189 16.078 23.1675 16.1186 23.7346 16.194C24.1724 16.2519 24.9046 16.4548 25.3855 16.6518C26.6489 17.1561 27.8261 18.1472 28.5726 19.3412C28.9386 19.9324 28.8956 19.944 28.0199 19.5151C24.6462 17.8748 21.0859 18.4486 19.7005 20.8539C19.3632 21.4335 19.1837 22.1406 19.1263 23.039C19.0473 24.4996 19.4278 25.7921 20.4973 27.6642L20.6839 28.0004L20.526 27.9656C19.8728 27.8091 18.4516 26.789 17.863 26.0529C17.4394 25.5197 16.9872 24.6503 16.7719 23.9664C16.3197 22.5406 16.3986 21.1379 17.0159 19.5962C17.1308 19.3064 17.2098 19.0688 17.1882 19.0688C17.0805 19.0688 16.7145 19.2832 15.6593 19.9672C11.0797 22.9231 7.59837 26.25 4.84201 30.3072C4.38262 30.9853 4.2247 31.2983 4.3539 31.2983C4.37544 31.2983 5.22245 31.4026 6.24173 31.5243C7.25383 31.6518 8.20133 31.762 8.33771 31.7736C8.5028 31.7852 8.59612 31.8257 8.61047 31.8895C8.62483 31.9416 8.38796 32.2199 8.06494 32.5328C4.79894 35.6685 1.56165 41.3601 0.405989 45.9911C0.0470875 47.4401 -0.103651 48.6283 0.0757997 48.6283C0.11169 48.6283 0.456235 48.5471 0.843849 48.4486C3.95911 47.6719 6.99542 46.9474 7.12462 46.9474C7.24665 46.9474 7.26818 46.9706 7.23947 47.075C7.21794 47.1503 7.11744 47.4923 7.01695 47.8458C6.40682 49.9614 6.24173 54.546 6.65805 58.012C6.93799 60.3999 7.57684 62.9733 8.33053 64.7701C8.89042 66.0858 9.75178 67.529 10.003 67.5695C10.0748 67.5811 10.5198 67.3319 11.0797 66.961C14.5036 64.7063 17.9778 61.5475 21.2941 57.6758C21.6888 57.2179 22.0477 56.8296 22.0908 56.818C22.2128 56.7832 22.3133 57.0267 22.7297 58.3829C23.1532 59.7797 23.4044 60.8636 23.6054 62.2199C23.7633 63.3095 23.792 67.0653 23.6413 68.2187C23.3829 70.2299 23.067 71.9223 22.543 74.061C22.3851 74.7102 22.2631 75.313 22.2774 75.3941C22.299 75.5274 22.4066 75.597 23.0168 75.852C25.3927 76.8547 28.3859 77.6488 31.1064 77.9965C32.1329 78.1298 39.5406 78.1124 40.7106 77.9791C44.034 77.5908 47.781 76.6461 50.9106 75.3999C52.418 74.7971 53.0784 74.5015 54.3058 73.8582C54.8154 73.5916 55.282 73.3771 55.3394 73.3887C55.4256 73.4003 55.6194 73.9277 56.1075 75.4405C56.4736 76.5591 56.7894 77.5039 56.8181 77.5386C56.9042 77.6488 56.9688 77.6256 57.701 77.2199C63.2137 74.1886 67.2908 70.2821 69.717 65.7148C70.844 63.5877 71.8704 60.4463 72.136 58.3018C72.1791 57.9598 72.2078 57.8729 72.3011 57.8729C72.3657 57.8729 73.1051 58.4699 73.9449 59.2059C74.7847 59.9362 75.5097 60.5738 75.5599 60.6202C75.6389 60.6839 75.6676 60.6781 75.7466 60.5622C75.9547 60.2376 76.8663 57.6236 77.2396 56.2384C78.1727 52.8246 78.345 48.976 77.7133 45.5564C76.9597 41.4586 75.0216 37.245 72.0642 33.2399C71.289 32.1967 69.4155 29.9073 69.3366 29.9073C69.2648 29.9073 69.2433 30.0116 69.0925 30.8926C69.0279 31.2925 68.9418 31.6403 68.9059 31.675C68.8628 31.7156 68.6834 31.6055 68.3963 31.3505C68.1522 31.1418 67.4559 30.5506 66.8602 30.0348C66.2572 29.5247 65.7619 29.061 65.7619 29.0147C65.7619 28.9625 65.884 28.8408 66.0275 28.7365C66.8171 28.1801 66.853 28.1337 66.8027 27.8671C66.5946 26.8818 65.683 25.6762 65.1446 25.6762C64.6493 25.682 63.5152 26.1746 62.9266 26.6441C62.7041 26.8238 62.4816 26.9513 62.3954 26.9513C62.3093 26.9513 62.0365 26.8238 61.7853 26.6731C61.5412 26.5166 61.1465 26.2964 60.9096 26.1862C60.2564 25.8617 58.9643 25.369 58.8782 25.4096C58.8423 25.4328 59.0218 25.6646 59.3089 25.9544C59.8616 26.5108 60.4143 27.16 60.8737 27.8033C61.2828 28.3829 61.7566 28.777 62.9984 29.5827C64.5417 30.5854 65.3958 31.1998 66.3075 31.9474C67.0396 32.5502 67.2908 32.8052 67.1329 32.8052C67.097 32.8052 66.8889 32.7415 66.6592 32.6603C65.5897 32.2778 64.3766 32.1039 62.4744 32.0692C60.0698 32.0228 58.4403 32.1967 57.0119 32.6603C56.6602 32.7705 56.3228 32.8516 56.2654 32.8284C56.2008 32.811 55.7199 32.4111 55.1887 31.9474C53.9828 30.881 52.3534 29.5479 51.2121 28.6843L50.3435 28.0236L50.2933 27.6932C50.1713 26.9049 50.6378 25.8269 51.3485 25.2299C51.6284 24.9923 51.5638 24.8995 51.1475 24.9517C50.322 25.0502 49.2094 25.4675 48.4126 25.9718C48.1614 26.1283 47.9245 26.2558 47.8743 26.2558C47.824 26.2558 47.4651 26.0877 47.0847 25.8848C46.1372 25.3806 44.9313 24.8937 43.51 24.4416C42.1678 24.0127 41.615 23.9084 40.9762 23.9548C40.0359 24.0243 37.8179 24.7952 36.4756 25.5139C35.6788 25.9428 35.0113 26.3833 34.9825 26.4992C34.9395 26.6731 37.3082 27.6642 38.5357 27.9888C39.7703 28.3134 40.244 28.3597 42.7205 28.3713C45.9936 28.3945 46.2018 28.4467 47.8528 29.6464C49.5396 30.881 52.6261 33.408 52.6261 33.5645C52.6261 33.6109 52.54 33.5935 51.3341 33.3385C49.4535 32.9386 47.6589 32.8342 44.2996 32.927C41.5792 33.0023 39.6124 32.9675 38.6649 32.8342C36.734 32.5502 34.9323 31.7967 33.5757 30.7013C32.4702 29.8087 31.7883 28.6959 31.6232 27.5135C31.5873 27.2585 31.5371 27.1542 31.4222 27.0962C31.2787 27.0267 28.9028 26.7195 28.5008 26.7195C27.9911 26.7195 28.3429 26.2906 29.556 25.4154C30.8839 24.459 32.0683 23.8389 33.3675 23.3984C33.7982 23.2593 34.2001 23.126 34.2719 23.1086C34.3365 23.0854 34.394 23.0448 34.394 23.0158C34.394 22.9869 34.0063 22.7086 33.5326 22.3957C33.0588 22.0827 32.6712 21.7929 32.6712 21.7523C32.6712 21.648 32.9009 21.4857 33.6761 21.0394C36.3751 19.4803 39.6554 18.3848 43.4885 17.7647C44.8236 17.5444 45.4768 17.5155 45.9362 17.643C46.8119 17.8922 50.0349 19.4165 52.5185 20.7496C53.9038 21.4915 54.1622 21.6132 54.2627 21.5495C54.557 21.3524 55.0882 20.1063 55.282 19.1847C55.3179 18.976 55.3753 18.721 55.3969 18.6167C55.4399 18.3848 55.5476 18.3791 56.1147 18.5819C57.8374 19.1905 60.6081 20.5699 62.8046 21.9088C64.1038 22.6971 64.7211 23.1086 65.9198 23.978C66.3936 24.3257 66.8027 24.6097 66.8386 24.6213C66.8745 24.6329 66.7381 24.3431 66.5372 23.9838C65.4533 22.0247 64.8575 20.5699 64.5847 19.2137C64.5201 18.8949 64.4483 18.5529 64.434 18.4486C64.3837 18.2342 63.8526 17.8284 62.6251 17.0865C60.6153 15.8752 58.2824 14.9073 55.4543 14.1248C54.1048 13.7481 51.9155 13.2438 51.8581 13.296C51.8366 13.3134 51.9155 13.5394 52.0447 13.7944C52.3677 14.4552 52.6118 15.226 52.7338 15.9853C52.8845 16.9185 52.8128 16.959 52.1596 16.3389C51.1475 15.3651 49.2884 14.0379 47.9317 13.3076C46.6684 12.6294 46.5464 12.5947 45.0677 12.5193C43.6321 12.4556 41.0336 12.4556 39.7416 12.5251ZM56.8899 35.9872C58.0168 36.6074 59.2873 37.1696 60.321 37.5116C61.0388 37.7492 61.2685 37.8478 61.3187 37.9521C61.4192 38.1607 61.3977 42.1194 61.2972 42.2701C61.2039 42.4092 61.2469 42.386 59.7755 43.3134C55.9496 45.7245 52.8128 47.0692 50.3651 47.3532C49.6831 47.4285 49.1089 47.4227 48.9007 47.3358C48.7931 47.2952 48.5418 46.988 48.226 46.5127C47.9532 46.0954 46.9555 44.6175 46.0152 43.2206C45.0677 41.8296 44.2996 40.624 44.2996 40.5487C44.2996 40.4386 44.4863 40.2995 45.2184 39.8648C48.6782 37.7956 52.0591 36.3698 54.959 35.7612C55.3969 35.6685 55.8419 35.5931 55.9567 35.5873C56.1003 35.5873 56.3946 35.7148 56.8899 35.9872ZM68.5901 35.9467C68.7623 36.1611 69.4658 37.9405 69.6668 38.6592C69.9754 39.7836 70.0759 40.4386 70.119 41.5862C70.1764 43.1453 69.997 44.2523 69.4945 45.4695C69.2433 46.0723 68.8485 46.733 68.7265 46.762C68.6762 46.7736 68.5111 46.5765 68.3532 46.3215C67.7502 45.3535 66.7597 44.2813 65.4389 43.1801C64.5273 42.4208 64.5919 42.6294 64.5632 40.1546L64.5345 38.0216L64.6996 37.8999C64.7929 37.8362 65.3958 37.5 66.049 37.1522C66.7022 36.8045 67.4775 36.364 67.7718 36.1727C68.0661 35.9814 68.3532 35.825 68.3963 35.825C68.4465 35.8192 68.5326 35.8771 68.5901 35.9467ZM64.7498 47.0576C65.3743 47.5908 66.2213 48.8717 66.6305 49.8976L66.7956 50.3149L66.6305 50.8481C66.1567 52.3203 65.3097 53.8736 64.4125 54.8879C63.5942 55.8153 61.6992 57.2585 61.412 57.1658C61.3331 57.1426 61.3116 56.9803 61.3116 56.3775C61.3116 55.9602 61.2613 55.2879 61.1967 54.8821C61.0675 54.0185 60.7086 52.5232 60.6081 52.442C60.565 52.4073 60.3712 52.5116 60.0841 52.7029C58.9284 53.4969 57.2847 54.2098 55.4686 54.7083C54.313 55.027 54.0689 55.056 53.9038 54.8995C53.6813 54.6967 51.1834 50.9351 51.2192 50.8539C51.2408 50.8134 51.3269 50.767 51.4202 50.7496C53.4875 50.4134 54.4565 50.0715 56.8971 48.808C57.4928 48.5066 58.4188 47.9791 58.9715 47.643C59.517 47.3068 60.0339 46.9938 60.1128 46.9474C60.2707 46.8547 61.2613 46.8083 63.4219 46.7852L64.4268 46.7736L64.7498 47.0576Z" fill="#917129"/>
<defs>
<filter id="filter0_d_105_2" x="68.8824" y="0" width="289.118" height="84.7868" filterUnits="userSpaceOnUse" color-interpolation-filters="sRGB">
<feFlood flood-opacity="0" result="BackgroundImageFix"/>
<feColorMatrix in="SourceAlpha" type="matrix" values="0 0 0 0 0 0 0 0 0 0 0 0 0 0 0 0 0 0 127 0" result="hardAlpha"/>
<feOffset dy="4"/>
<feGaussianBlur stdDeviation="2"/>
<feComposite in2="hardAlpha" operator="out"/>
<feColorMatrix type="matrix" values="0 0 0 0 0 0 0 0 0 0 0 0 0 0 0 0 0 0 0.25 0"/>
<feBlend mode="normal" in2="BackgroundImageFix" result="effect1_dropShadow_105_2"/>
<feBlend mode="normal" in="SourceGraphic" in2="effect1_dropShadow_105_2" result="shape"/>
</filter>
</defs>
</svg>
